# xmcd CD database file
#
# Track frame offsets:
#	150
#	13297
#	26336
#	40800
#	53027
#	91012
#	103146
#	113308
#	129539
#	142367
#	156547
#	170630
#	183871
#	195371
#	211211
#	225116
#	240758
#	254822
#	266708
#	280957
#	294441
#	307886
#	321612
#
# Disc length: 4464 seconds
#
# Revision: 6
# Processed by: cddbd v1.5.2PL0 Copyright (c) Steve Scherf et al.
# Submitted via: CDex 1.51
#
DISCID=43116e17
DTITLE=Various Artist - City Jazz - Vol. 04-10  { 1929-1935 }
DYEAR=2002
DGENRE=Jazz
TTITLE0=Jones and Collins Astoria Hot Eight - Duet Stomp  [1929]
TTITLE1=James P.Johnson and Clarence Williams - I've Found A New Baby  [1930]
TTITLE2=Red Nichols and His Five Pennies - Peg Of My Heart  [1930]
TTITLE3=Jimmie Rodgers - Blue Yodel N°9  [1930]
TTITLE4=Duke Ellington - Creole Rhapsody  [1931]
TTITLE5=Don Redman - Shakin' The African  [1931]
TTITLE6=Duke Ellington - Lots O' Fingers  [1932]
TTITLE7=Cab Calloway - Minnie The Moocher  [1932]
TTITLE8=Sidney Bechet - Sweetie Dear  [1932]
TTITLE9=Sidney Bechet - Shag  [1932]
TTITLE10=Ethel Waters and Duke Ellington - I Can't Give You Anything But Love  [1932]
TTITLE11=Spike Hughes and His Negro Orchestra - Fanfare  [1933]
TTITLE12=Fletcher Henderson - Queer Notions  [1933]
TTITLE13=Bessie Smith - Gimme A Pigfoot  [1933]
TTITLE14=Duke Ellington - Stompy Jones  [1934]
TTITLE15=Duke Ellington - Solitude  [1934]
TTITLE16=Teddy Wilson - Somebody Loves Me  [1934]
TTITLE17=Art Tatum - Moonglow  [1934]
TTITLE18=Fletcher Henderson - Shangai Shuffle  [1934]
TTITLE19=Spirits Of Rhythm - Shoutin' In That Amen Corner  [1934]
TTITLE20=Fats Waller - Viper's Drag  [1934]
TTITLE21=Teddy Hill - Here Comes Cookie  [1935]
TTITLE22=Willie Bryant - The Sheik Of Araby  [1935]
EXTD=November 1929 to May 1935 YEAR: 2002
EXTT0=
EXTT1=
EXTT2=
EXTT3=
EXTT4=
EXTT5=
EXTT6=
EXTT7=
EXTT8=
EXTT9=
EXTT10=
EXTT11=(with Howard Johnson, Coleman Hawkins)
EXTT12=(with Coleman Hawkins)
EXTT13=(with Jack Teagarden)
EXTT14=
EXTT15=
EXTT16=
EXTT17=
EXTT18=
EXTT19=
EXTT20=
EXTT21=(with Howard Johnson)
EXTT22=
PLAYORDER=
